<?xml version="1.0" encoding="UTF-8" standalone="no"?>
<!-- Created with Inkscape (http://www.inkscape.org/) -->

<svg
   xmlns:dc="http://purl.org/dc/elements/1.1/"
   xmlns:cc="http://creativecommons.org/ns#"
   xmlns:rdf="http://www.w3.org/1999/02/22-rdf-syntax-ns#"
   xmlns:svg="http://www.w3.org/2000/svg"
   xmlns="http://www.w3.org/2000/svg"
   xmlns:xlink="http://www.w3.org/1999/xlink"
   xmlns:sodipodi="http://sodipodi.sourceforge.net/DTD/sodipodi-0.dtd"
   xmlns:inkscape="http://www.inkscape.org/namespaces/inkscape"
   id="svg4209"
   version="1.1"
   inkscape:version="0.91 r13725"
   xml:space="preserve"
   width="125"
   height="125"
   viewBox="0 0 125 125"
   sodipodi:docname="adnjp-logo.svg"
   inkscape:export-filename="/Users/remi/Dropbox/Sites/adnjp.github.io/assets/logo/rasters/tokyoadn-logo-shades-transparent-trimmed.png"
   inkscape:export-xdpi="2949.1201"
   inkscape:export-ydpi="2949.1201"><metadata
     id="metadata4215"><rdf:RDF><cc:Work
         rdf:about=""><dc:format>image/svg+xml</dc:format><dc:type
           rdf:resource="http://purl.org/dc/dcmitype/StillImage" /><dc:title /></cc:Work></rdf:RDF></metadata><defs
     id="defs4213"><linearGradient
       inkscape:collect="always"
       id="linearGradient5446"><stop
         style="stop-color:#4a484c;stop-opacity:1;"
         offset="0"
         id="stop5448" /><stop
         style="stop-color:#203374;stop-opacity:1"
         offset="1"
         id="stop5450" /></linearGradient><linearGradient
       inkscape:collect="always"
       id="linearGradient5438"><stop
         style="stop-color:#cfe7ef;stop-opacity:1"
         offset="0"
         id="stop5440" /><stop
         style="stop-color:#ffffff;stop-opacity:1"
         offset="1"
         id="stop5442" /></linearGradient><clipPath
       clipPathUnits="userSpaceOnUse"
       id="clipPath4223"><path
         d="M 0,100 100,100 100,0 0,0 0,100 Z"
         id="path4225"
         inkscape:connector-curvature="0" /></clipPath><linearGradient
       inkscape:collect="always"
       xlink:href="#linearGradient5438"
       id="linearGradient5444"
       x1="49.486805"
       y1="43.147751"
       x2="49.486805"
       y2="33.55986"
       gradientUnits="userSpaceOnUse"
       spreadMethod="pad" /><linearGradient
       inkscape:collect="always"
       xlink:href="#linearGradient5446"
       id="linearGradient5452"
       x1="62.123344"
       y1="106.16655"
       x2="62.123344"
       y2="77.035194"
       gradientUnits="userSpaceOnUse" /></defs><sodipodi:namedview
     pagecolor="#ffffff"
     bordercolor="#666666"
     borderopacity="1"
     objecttolerance="10"
     gridtolerance="10"
     guidetolerance="10"
     inkscape:pageopacity="0"
     inkscape:pageshadow="2"
     inkscape:window-width="1280"
     inkscape:window-height="751"
     id="namedview4211"
     showgrid="false"
     inkscape:zoom="2.6700352"
     inkscape:cx="-16.091348"
     inkscape:cy="69.990538"
     inkscape:window-x="0"
     inkscape:window-y="1"
     inkscape:window-maximized="1"
     inkscape:current-layer="g4217" /><g
     id="g4217"
     inkscape:groupmode="layer"
     inkscape:label="appdotnet-icon-share"
     transform="matrix(1.25,0,0,-1.25,0,125)"><circle
       style="opacity:1;fill:#ffffff;fill-opacity:1;stroke:none;stroke-width:3;stroke-linejoin:miter;stroke-miterlimit:4;stroke-dasharray:none;stroke-opacity:1"
       id="path5542"
       cx="50"
       cy="-50"
       transform="scale(1,-1)"
       r="49.849998" /><path
       style="fill:#ed2939;fill-opacity:1;fill-rule:nonzero;stroke:none;stroke-opacity:1"
       d="M 50,99.85 C 22.469,99.85 0.15,77.532 0.15,50 0.15,38.407761 4.117755,27.748335 10.754687,19.281248 L 49.998438,78.401562 89.245312,19.281248 C 95.882112,27.748335 99.85,38.407761 99.85,50 99.85,77.532 77.532,99.85 50,99.85 Z"
       id="path4834"
       inkscape:connector-curvature="0" /><path
       style="fill:#ed2939;fill-opacity:1;fill-rule:nonzero;stroke:none"
       d="M 49.998438,68.285938 36.532813,48 63.465625,48 49.998438,68.285938 Z"
       id="path4832" /><path
       style="fill:url(#linearGradient5444);fill-opacity:1;fill-rule:nonzero;stroke:none"
       d="M 32.50625,43 14.284375,15.240624 C 23.340414,5.937376 35.991581,0.15 50,0.15 c 14.009206,0 26.65968,5.787056 35.715624,15.090624 L 67.495313,43 32.50625,43 Z"
       id="path4229" /><path
       style="fill:url(#linearGradient5452);fill-opacity:1;fill-rule:nonzero;stroke:none"
       d="m 42.373047,79.457031 c -3.708113,1.67e-4 -9.554688,5.697266 -9.554688,5.697266 L 17.855469,105.94922 C 29.175517,117.57828 44.989476,124.8125 62.5,124.8125 c 17.511508,0 33.324601,-7.23382 44.64453,-18.86328 L 92.181641,85.154297 c 0,0 -5.846575,-5.697257 -9.554688,-5.697266 -3.90518,-9e-6 -6.15732,5.999833 -10.0625,6 -3.90574,1.67e-4 -6.158713,-6.000167 -10.064453,-6 -3.90518,1.67e-4 -6.15732,5.999833 -10.0625,6 -3.90574,1.67e-4 -6.158713,-6.000176 -10.064453,-6 z"
       transform="matrix(0.8,0,0,-0.8,0,100)"
       id="path5435"
       inkscape:connector-curvature="0"
       sodipodi:nodetypes="sccsccsssss" /></g></svg>