<?xml version="1.0" encoding="UTF-8" standalone="no"?>
<!-- Created with Inkscape (http://www.inkscape.org/) -->

<svg
   xmlns:dc="http://purl.org/dc/elements/1.1/"
   xmlns:cc="http://creativecommons.org/ns#"
   xmlns:rdf="http://www.w3.org/1999/02/22-rdf-syntax-ns#"
   xmlns:svg="http://www.w3.org/2000/svg"
   xmlns="http://www.w3.org/2000/svg"
   xmlns:sodipodi="http://sodipodi.sourceforge.net/DTD/sodipodi-0.dtd"
   xmlns:inkscape="http://www.inkscape.org/namespaces/inkscape"
   id="svg3103"
   version="1.1"
   inkscape:version="0.48.5 r10040"
   width="714"
   height="714"
   xml:space="preserve"
   sodipodi:docname="tokyoadn-logo.svg"
   inkscape:export-filename="/Users/remi/Sites/tokyoadn.github.io/assets/logo/rasters/tokyoadn-logo-color-transparent-padded.png"
   inkscape:export-xdpi="90"
   inkscape:export-ydpi="90"><metadata
     id="metadata3109"><rdf:RDF><cc:Work
         rdf:about=""><dc:format>image/svg+xml</dc:format><dc:type
           rdf:resource="http://purl.org/dc/dcmitype/StillImage" /><dc:title></dc:title></cc:Work></rdf:RDF></metadata><defs
     id="defs3107"><clipPath
       clipPathUnits="userSpaceOnUse"
       id="clipPath3117"><path
         d="M 0,100 100,100 100,0 0,0 0,100 z"
         id="path3119"
         inkscape:connector-curvature="0" /></clipPath><clipPath
       clipPathUnits="userSpaceOnUse"
       id="clipPath3956"><path
         inkscape:connector-curvature="0"
         d="M 0,100 100,100 100,0 0,0 0,100 z"
         id="path3958" /></clipPath></defs><sodipodi:namedview
     pagecolor="#ffffff"
     bordercolor="#666666"
     borderopacity="1"
     objecttolerance="10"
     gridtolerance="10"
     guidetolerance="10"
     inkscape:pageopacity="0"
     inkscape:pageshadow="2"
     inkscape:window-width="1271"
     inkscape:window-height="679"
     id="namedview3105"
     showgrid="true"
     inkscape:zoom="0.3337544"
     inkscape:cx="282.37779"
     inkscape:cy="320.96708"
     inkscape:window-x="19"
     inkscape:window-y="17"
     inkscape:window-maximized="0"
     inkscape:current-layer="g4112"
     showguides="true"
     inkscape:guide-bbox="true" /><g
     id="g3111"
     inkscape:groupmode="layer"
     inkscape:label="logo"
     transform="matrix(1.25,0,0,-1.25,0,714)"><g
       id="g4112"><path
         id="path4032"
         d="m 285.6,489.6 c -112.66447,0 -204,-91.33145 -204,-204 0,-73.73552 39.13126,-138.33608 97.75,-174.17496 L 285.6,271.5 391.87504,111.42504 C 450.4937,147.26392 489.6,211.86448 489.6,285.6 c 0,112.66855 -91.3314,204 -204,204 z"
         style="fill:#745399;fill-opacity:1;fill-rule:nonzero;stroke:none"
         inkscape:connector-curvature="0" /><path
         id="path4030"
         d="m 285.6,230.1 -55.1,-83.02504 110.22496,0 L 285.6,230.1 z"
         style="fill:#4a484c;fill-opacity:1;fill-rule:nonzero;stroke:none"
         inkscape:connector-curvature="0" /><path
         id="path4028"
         d="M 214.02496,126.62504 197.95,101.37496 C 224.51072,88.71352 254.21592,81.6 285.6,81.6 c 31.3852,0 61.11416,7.11352 87.67504,19.77496 L 357.2,126.62504 l -143.17504,0 z"
         style="fill:#4a484c;fill-opacity:1;fill-rule:nonzero;stroke:none"
         inkscape:connector-curvature="0" /><path
         id="path4026"
         d="m 373.27504,101.37496 c 3.19552,1.52336 6.34872,3.118 9.44992,4.8 -3.10208,-1.6736 -6.25728,-3.278 -9.44992,-4.8 z"
         style="fill:#4a484c;fill-opacity:1;fill-rule:nonzero;stroke:none"
         inkscape:connector-curvature="0" /><path
         id="path3962"
         d="m 197.95,101.37496 c -3.19266,1.522 -6.34792,3.1264 -9.45,4.8 3.10121,-1.682 6.25443,-3.27664 9.45,-4.8 z"
         style="fill:#4a484c;fill-opacity:1;fill-rule:nonzero;stroke:none"
         inkscape:connector-curvature="0" /><path
         inkscape:connector-curvature="0"
         id="path3966"
         d="M 285.6,271.5 179.35,111.42504 c 5.99807,-3.6672 12.21469,-7.00616 18.6,-10.05008 l 16.07496,25.25008 143.17504,0 16.07504,-25.25008 c 6.38528,3.04392 12.60196,6.38288 18.59996,10.05008 L 285.6,271.5 z m 0,-41.4 55.12496,-83.02504 -110.22496,0 55.1,83.02504 z"
         style="fill:#ffffff;fill-opacity:1;fill-rule:nonzero;stroke:none" /><text
         transform="scale(1,-1)"
         sodipodi:linespacing="125%"
         id="text4082"
         y="-315.72159"
         x="286.44992"
         style="font-size:130.75666809px;font-style:normal;font-variant:normal;font-weight:300;font-stretch:normal;text-align:center;line-height:125%;letter-spacing:0px;word-spacing:0px;writing-mode:lr-tb;text-anchor:middle;fill:#ffffff;fill-opacity:1;stroke:none;font-family:Hiragino Kaku Gothic Pro;-inkscape-font-specification:Hiragino Kaku Gothic Pro Light"
         xml:space="preserve"><tspan
           style="font-size:130.75666809px;font-style:normal;font-variant:normal;font-weight:300;font-stretch:normal;text-align:center;line-height:125%;writing-mode:lr-tb;text-anchor:middle;fill:#ffffff;font-family:Hiragino Kaku Gothic Pro;-inkscape-font-specification:Hiragino Kaku Gothic Pro Light"
           y="-315.72159"
           x="286.44992"
           id="tspan4086"
           sodipodi:role="line">東京</tspan></text>
<rect
         style="fill:#745399;fill-opacity:0;stroke:none"
         id="rect4198"
         width="224"
         height="224"
         x="173.60001"
         y="-305.60001"
         transform="scale(1,-1)"
         inkscape:export-filename="/Users/remi/Sites/tokyoadn.github.io/assets/logo/rasters/tokyoadn-logo-color-transparent-cropped.png"
         inkscape:export-xdpi="90"
         inkscape:export-ydpi="90" /></g></g></svg>